<mxfile host="app.diagrams.net" modified="2023-10-19T18:50:05.990Z" agent="Mozilla/5.0 (Windows NT 10.0; Win64; x64) AppleWebKit/537.36 (KHTML, like Gecko) Chrome/116.0.5845.888 YaBrowser/23.9.2.888 Yowser/2.5 Safari/537.36" etag="AcUArscDmbGzEC0aLfec" version="22.0.5" type="device">
  <diagram name="Страница — 1" id="ANzKE4HPqCSJMEvoz9SH">
    <mxGraphModel dx="2226" dy="681" grid="1" gridSize="10" guides="1" tooltips="1" connect="1" arrows="1" fold="1" page="1" pageScale="1" pageWidth="827" pageHeight="1169" math="0" shadow="0">
      <root>
        <mxCell id="0" />
        <mxCell id="1" parent="0" />
        <mxCell id="Dk2gaVEhIqQ-_u3O1y7d-19" value="программа" style="rounded=0;whiteSpace=wrap;html=1;" parent="1" vertex="1">
          <mxGeometry x="-10" y="290" width="120" height="60" as="geometry" />
        </mxCell>
        <mxCell id="Dk2gaVEhIqQ-_u3O1y7d-20" value="сотрудник" style="rounded=0;whiteSpace=wrap;html=1;" parent="1" vertex="1">
          <mxGeometry x="354" y="290" width="120" height="60" as="geometry" />
        </mxCell>
        <mxCell id="Dk2gaVEhIqQ-_u3O1y7d-22" style="edgeStyle=orthogonalEdgeStyle;rounded=0;orthogonalLoop=1;jettySize=auto;html=1;exitX=0;exitY=0.5;exitDx=0;exitDy=0;entryX=1;entryY=0.5;entryDx=0;entryDy=0;" parent="1" source="Dk2gaVEhIqQ-_u3O1y7d-21" target="Dk2gaVEhIqQ-_u3O1y7d-19" edge="1">
          <mxGeometry relative="1" as="geometry" />
        </mxCell>
        <mxCell id="Dk2gaVEhIqQ-_u3O1y7d-23" style="edgeStyle=orthogonalEdgeStyle;rounded=0;orthogonalLoop=1;jettySize=auto;html=1;exitX=1;exitY=0.5;exitDx=0;exitDy=0;" parent="1" source="Dk2gaVEhIqQ-_u3O1y7d-21" target="Dk2gaVEhIqQ-_u3O1y7d-20" edge="1">
          <mxGeometry relative="1" as="geometry" />
        </mxCell>
        <mxCell id="Dk2gaVEhIqQ-_u3O1y7d-21" value="участвует" style="rhombus;whiteSpace=wrap;html=1;" parent="1" vertex="1">
          <mxGeometry x="160" y="280" width="130" height="80" as="geometry" />
        </mxCell>
        <mxCell id="Dk2gaVEhIqQ-_u3O1y7d-24" value="1" style="text;html=1;align=center;verticalAlign=middle;resizable=0;points=[];autosize=1;strokeColor=none;fillColor=none;" parent="1" vertex="1">
          <mxGeometry x="325" y="288" width="30" height="30" as="geometry" />
        </mxCell>
        <mxCell id="Dk2gaVEhIqQ-_u3O1y7d-25" value="M" style="text;html=1;align=center;verticalAlign=middle;resizable=0;points=[];autosize=1;strokeColor=none;fillColor=none;" parent="1" vertex="1">
          <mxGeometry x="105" y="288" width="30" height="30" as="geometry" />
        </mxCell>
        <mxCell id="Dk2gaVEhIqQ-_u3O1y7d-26" value="должность" style="rounded=0;whiteSpace=wrap;html=1;" parent="1" vertex="1">
          <mxGeometry x="680" y="288" width="120" height="60" as="geometry" />
        </mxCell>
        <mxCell id="Dk2gaVEhIqQ-_u3O1y7d-29" style="edgeStyle=orthogonalEdgeStyle;rounded=0;orthogonalLoop=1;jettySize=auto;html=1;entryX=1;entryY=0.5;entryDx=0;entryDy=0;" parent="1" source="Dk2gaVEhIqQ-_u3O1y7d-28" target="Dk2gaVEhIqQ-_u3O1y7d-20" edge="1">
          <mxGeometry relative="1" as="geometry" />
        </mxCell>
        <mxCell id="Dk2gaVEhIqQ-_u3O1y7d-28" value="имеет" style="rhombus;whiteSpace=wrap;html=1;" parent="1" vertex="1">
          <mxGeometry x="510" y="280" width="130" height="80" as="geometry" />
        </mxCell>
        <mxCell id="Dk2gaVEhIqQ-_u3O1y7d-30" style="edgeStyle=orthogonalEdgeStyle;rounded=0;orthogonalLoop=1;jettySize=auto;html=1;entryX=0.083;entryY=0.533;entryDx=0;entryDy=0;entryPerimeter=0;" parent="1" source="Dk2gaVEhIqQ-_u3O1y7d-28" target="Dk2gaVEhIqQ-_u3O1y7d-26" edge="1">
          <mxGeometry relative="1" as="geometry" />
        </mxCell>
        <mxCell id="Dk2gaVEhIqQ-_u3O1y7d-31" value="M" style="text;html=1;align=center;verticalAlign=middle;resizable=0;points=[];autosize=1;strokeColor=none;fillColor=none;" parent="1" vertex="1">
          <mxGeometry x="655" y="288" width="30" height="30" as="geometry" />
        </mxCell>
        <mxCell id="Dk2gaVEhIqQ-_u3O1y7d-32" value="M" style="text;html=1;align=center;verticalAlign=middle;resizable=0;points=[];autosize=1;strokeColor=none;fillColor=none;" parent="1" vertex="1">
          <mxGeometry x="475" y="288" width="30" height="30" as="geometry" />
        </mxCell>
        <mxCell id="Dk2gaVEhIqQ-_u3O1y7d-35" value="расписание&amp;nbsp;" style="rounded=0;whiteSpace=wrap;html=1;" parent="1" vertex="1">
          <mxGeometry y="110" width="120" height="60" as="geometry" />
        </mxCell>
        <mxCell id="Dk2gaVEhIqQ-_u3O1y7d-36" value="включает" style="rhombus;whiteSpace=wrap;html=1;" parent="1" vertex="1">
          <mxGeometry x="-10" y="190" width="130" height="80" as="geometry" />
        </mxCell>
        <mxCell id="Dk2gaVEhIqQ-_u3O1y7d-37" style="edgeStyle=orthogonalEdgeStyle;rounded=0;orthogonalLoop=1;jettySize=auto;html=1;entryX=0.455;entryY=0.991;entryDx=0;entryDy=0;entryPerimeter=0;" parent="1" source="Dk2gaVEhIqQ-_u3O1y7d-36" target="Dk2gaVEhIqQ-_u3O1y7d-35" edge="1">
          <mxGeometry relative="1" as="geometry" />
        </mxCell>
        <mxCell id="Dk2gaVEhIqQ-_u3O1y7d-38" style="edgeStyle=orthogonalEdgeStyle;rounded=0;orthogonalLoop=1;jettySize=auto;html=1;exitX=0.5;exitY=1;exitDx=0;exitDy=0;entryX=0.539;entryY=-0.016;entryDx=0;entryDy=0;entryPerimeter=0;" parent="1" source="Dk2gaVEhIqQ-_u3O1y7d-36" target="Dk2gaVEhIqQ-_u3O1y7d-19" edge="1">
          <mxGeometry relative="1" as="geometry" />
        </mxCell>
        <mxCell id="Dk2gaVEhIqQ-_u3O1y7d-39" value="1" style="text;html=1;align=center;verticalAlign=middle;resizable=0;points=[];autosize=1;strokeColor=none;fillColor=none;" parent="1" vertex="1">
          <mxGeometry x="70" y="170" width="30" height="30" as="geometry" />
        </mxCell>
        <mxCell id="Dk2gaVEhIqQ-_u3O1y7d-40" value="1" style="text;html=1;align=center;verticalAlign=middle;resizable=0;points=[];autosize=1;strokeColor=none;fillColor=none;" parent="1" vertex="1">
          <mxGeometry x="75" y="260" width="30" height="30" as="geometry" />
        </mxCell>
        <mxCell id="Dk2gaVEhIqQ-_u3O1y7d-41" value="музыка и тд" style="rounded=0;whiteSpace=wrap;html=1;" parent="1" vertex="1">
          <mxGeometry x="-310" y="288" width="120" height="60" as="geometry" />
        </mxCell>
        <mxCell id="Dk2gaVEhIqQ-_u3O1y7d-43" style="edgeStyle=orthogonalEdgeStyle;rounded=0;orthogonalLoop=1;jettySize=auto;html=1;entryX=1;entryY=0.5;entryDx=0;entryDy=0;" parent="1" source="Dk2gaVEhIqQ-_u3O1y7d-42" target="Dk2gaVEhIqQ-_u3O1y7d-41" edge="1">
          <mxGeometry relative="1" as="geometry" />
        </mxCell>
        <mxCell id="Dk2gaVEhIqQ-_u3O1y7d-42" value="имеет" style="rhombus;whiteSpace=wrap;html=1;" parent="1" vertex="1">
          <mxGeometry x="-170" y="278" width="130" height="80" as="geometry" />
        </mxCell>
        <mxCell id="Dk2gaVEhIqQ-_u3O1y7d-44" style="edgeStyle=orthogonalEdgeStyle;rounded=0;orthogonalLoop=1;jettySize=auto;html=1;entryX=0.002;entryY=0.458;entryDx=0;entryDy=0;entryPerimeter=0;" parent="1" source="Dk2gaVEhIqQ-_u3O1y7d-42" target="Dk2gaVEhIqQ-_u3O1y7d-19" edge="1">
          <mxGeometry relative="1" as="geometry" />
        </mxCell>
        <mxCell id="Dk2gaVEhIqQ-_u3O1y7d-45" value="1(0:M,1:M)" style="text;html=1;align=center;verticalAlign=middle;resizable=0;points=[];autosize=1;strokeColor=none;fillColor=none;" parent="1" vertex="1">
          <mxGeometry x="-190" y="270" width="80" height="30" as="geometry" />
        </mxCell>
        <mxCell id="Dk2gaVEhIqQ-_u3O1y7d-46" value="M" style="text;html=1;align=center;verticalAlign=middle;resizable=0;points=[];autosize=1;strokeColor=none;fillColor=none;" parent="1" vertex="1">
          <mxGeometry x="-45" y="278" width="30" height="30" as="geometry" />
        </mxCell>
        <mxCell id="Dk2gaVEhIqQ-_u3O1y7d-47" value="реклама" style="rounded=0;whiteSpace=wrap;html=1;" parent="1" vertex="1">
          <mxGeometry x="-300" y="100" width="120" height="60" as="geometry" />
        </mxCell>
        <mxCell id="Dk2gaVEhIqQ-_u3O1y7d-49" value="" style="edgeStyle=orthogonalEdgeStyle;rounded=0;orthogonalLoop=1;jettySize=auto;html=1;" parent="1" source="Dk2gaVEhIqQ-_u3O1y7d-48" target="Dk2gaVEhIqQ-_u3O1y7d-41" edge="1">
          <mxGeometry relative="1" as="geometry">
            <Array as="points">
              <mxPoint x="-250" y="290" />
              <mxPoint x="-250" y="290" />
            </Array>
          </mxGeometry>
        </mxCell>
        <mxCell id="Dk2gaVEhIqQ-_u3O1y7d-48" value="имеет" style="rhombus;whiteSpace=wrap;html=1;" parent="1" vertex="1">
          <mxGeometry x="-310" y="190" width="130" height="80" as="geometry" />
        </mxCell>
        <mxCell id="Dk2gaVEhIqQ-_u3O1y7d-50" style="edgeStyle=orthogonalEdgeStyle;rounded=0;orthogonalLoop=1;jettySize=auto;html=1;entryX=0.444;entryY=1.039;entryDx=0;entryDy=0;entryPerimeter=0;" parent="1" source="Dk2gaVEhIqQ-_u3O1y7d-48" target="Dk2gaVEhIqQ-_u3O1y7d-47" edge="1">
          <mxGeometry relative="1" as="geometry" />
        </mxCell>
        <mxCell id="Dk2gaVEhIqQ-_u3O1y7d-51" value="1(0:1,1:1)" style="text;html=1;align=center;verticalAlign=middle;resizable=0;points=[];autosize=1;strokeColor=none;fillColor=none;" parent="1" vertex="1">
          <mxGeometry x="-245" y="258" width="70" height="30" as="geometry" />
        </mxCell>
        <mxCell id="Dk2gaVEhIqQ-_u3O1y7d-52" value="M" style="text;html=1;align=center;verticalAlign=middle;resizable=0;points=[];autosize=1;strokeColor=none;fillColor=none;" parent="1" vertex="1">
          <mxGeometry x="-235" y="158" width="30" height="30" as="geometry" />
        </mxCell>
        <mxCell id="Dk2gaVEhIqQ-_u3O1y7d-53" value="тех. поддержка" style="rounded=0;whiteSpace=wrap;html=1;" parent="1" vertex="1">
          <mxGeometry x="354" y="98" width="120" height="60" as="geometry" />
        </mxCell>
        <mxCell id="Dk2gaVEhIqQ-_u3O1y7d-61" style="edgeStyle=orthogonalEdgeStyle;rounded=0;orthogonalLoop=1;jettySize=auto;html=1;" parent="1" source="Dk2gaVEhIqQ-_u3O1y7d-55" edge="1">
          <mxGeometry relative="1" as="geometry">
            <mxPoint x="410" y="160" as="targetPoint" />
          </mxGeometry>
        </mxCell>
        <mxCell id="Dk2gaVEhIqQ-_u3O1y7d-55" value="работает" style="rhombus;whiteSpace=wrap;html=1;" parent="1" vertex="1">
          <mxGeometry x="345" y="180" width="130" height="80" as="geometry" />
        </mxCell>
        <mxCell id="Dk2gaVEhIqQ-_u3O1y7d-58" style="edgeStyle=orthogonalEdgeStyle;rounded=0;orthogonalLoop=1;jettySize=auto;html=1;" parent="1" source="Dk2gaVEhIqQ-_u3O1y7d-56" target="Dk2gaVEhIqQ-_u3O1y7d-47" edge="1">
          <mxGeometry relative="1" as="geometry" />
        </mxCell>
        <mxCell id="Dk2gaVEhIqQ-_u3O1y7d-56" value="имеет" style="rhombus;whiteSpace=wrap;html=1;" parent="1" vertex="1">
          <mxGeometry x="-160" y="90" width="120" height="80" as="geometry" />
        </mxCell>
        <mxCell id="Dk2gaVEhIqQ-_u3O1y7d-57" style="edgeStyle=orthogonalEdgeStyle;rounded=0;orthogonalLoop=1;jettySize=auto;html=1;exitX=1;exitY=0.5;exitDx=0;exitDy=0;" parent="1" source="Dk2gaVEhIqQ-_u3O1y7d-56" edge="1">
          <mxGeometry relative="1" as="geometry">
            <mxPoint x="-85" y="184" as="sourcePoint" />
            <mxPoint y="130" as="targetPoint" />
            <Array as="points">
              <mxPoint y="130" />
            </Array>
          </mxGeometry>
        </mxCell>
        <mxCell id="Dk2gaVEhIqQ-_u3O1y7d-59" value="1" style="text;html=1;align=center;verticalAlign=middle;resizable=0;points=[];autosize=1;strokeColor=none;fillColor=none;" parent="1" vertex="1">
          <mxGeometry x="-185" y="98" width="30" height="30" as="geometry" />
        </mxCell>
        <mxCell id="Dk2gaVEhIqQ-_u3O1y7d-60" value="М" style="text;html=1;align=center;verticalAlign=middle;resizable=0;points=[];autosize=1;strokeColor=none;fillColor=none;" parent="1" vertex="1">
          <mxGeometry x="-45" y="98" width="30" height="30" as="geometry" />
        </mxCell>
        <mxCell id="Dk2gaVEhIqQ-_u3O1y7d-62" value="M" style="text;html=1;align=center;verticalAlign=middle;resizable=0;points=[];autosize=1;strokeColor=none;fillColor=none;" parent="1" vertex="1">
          <mxGeometry x="355" y="160" width="30" height="30" as="geometry" />
        </mxCell>
        <mxCell id="Dk2gaVEhIqQ-_u3O1y7d-63" style="edgeStyle=orthogonalEdgeStyle;rounded=0;orthogonalLoop=1;jettySize=auto;html=1;entryX=0.465;entryY=-0.054;entryDx=0;entryDy=0;entryPerimeter=0;" parent="1" source="Dk2gaVEhIqQ-_u3O1y7d-55" target="Dk2gaVEhIqQ-_u3O1y7d-20" edge="1">
          <mxGeometry relative="1" as="geometry" />
        </mxCell>
        <mxCell id="Dk2gaVEhIqQ-_u3O1y7d-64" value="M" style="text;html=1;align=center;verticalAlign=middle;resizable=0;points=[];autosize=1;strokeColor=none;fillColor=none;" parent="1" vertex="1">
          <mxGeometry x="354" y="258" width="30" height="30" as="geometry" />
        </mxCell>
        <mxCell id="L2r5BxZI7cI_QM2o98lk-2" style="edgeStyle=orthogonalEdgeStyle;rounded=0;orthogonalLoop=1;jettySize=auto;html=1;entryX=0;entryY=0.5;entryDx=0;entryDy=0;" edge="1" parent="1" source="L2r5BxZI7cI_QM2o98lk-1" target="Dk2gaVEhIqQ-_u3O1y7d-53">
          <mxGeometry relative="1" as="geometry" />
        </mxCell>
        <mxCell id="L2r5BxZI7cI_QM2o98lk-3" style="edgeStyle=orthogonalEdgeStyle;rounded=0;orthogonalLoop=1;jettySize=auto;html=1;entryX=1;entryY=0;entryDx=0;entryDy=0;" edge="1" parent="1" source="L2r5BxZI7cI_QM2o98lk-1" target="Dk2gaVEhIqQ-_u3O1y7d-19">
          <mxGeometry relative="1" as="geometry">
            <Array as="points">
              <mxPoint x="235" y="190" />
              <mxPoint x="150" y="190" />
              <mxPoint x="150" y="290" />
            </Array>
          </mxGeometry>
        </mxCell>
        <mxCell id="L2r5BxZI7cI_QM2o98lk-1" value="работает" style="rhombus;whiteSpace=wrap;html=1;" vertex="1" parent="1">
          <mxGeometry x="170" y="88" width="130" height="80" as="geometry" />
        </mxCell>
        <mxCell id="L2r5BxZI7cI_QM2o98lk-5" value="M" style="text;html=1;align=center;verticalAlign=middle;resizable=0;points=[];autosize=1;strokeColor=none;fillColor=none;" vertex="1" parent="1">
          <mxGeometry x="120" y="260" width="30" height="30" as="geometry" />
        </mxCell>
        <mxCell id="L2r5BxZI7cI_QM2o98lk-6" value="1" style="text;html=1;align=center;verticalAlign=middle;resizable=0;points=[];autosize=1;strokeColor=none;fillColor=none;" vertex="1" parent="1">
          <mxGeometry x="315" y="90" width="30" height="30" as="geometry" />
        </mxCell>
      </root>
    </mxGraphModel>
  </diagram>
</mxfile>
